<?xml version="1.0" encoding="utf-8"?>
<!-- Generator: Adobe Illustrator 23.1.0, SVG Export Plug-In . SVG Version: 6.00 Build 0)  -->
<svg version="1.1" id="Layer_1" xmlns="http://www.w3.org/2000/svg" xmlns:xlink="http://www.w3.org/1999/xlink" x="0px" y="0px"
	 viewBox="0 0 200 200" style="enable-background:new 0 0 200 200;" xml:space="preserve">
<style type="text/css">
	.st0{fill:#FFFFFF;}
	.st1{fill:#7ABA43;}
</style>
<g>
	<path class="st0" d="M70.4,105.1c-0.7-2.1,0.8-1.7,2.3-1.5c6.3,0.8,11.5-3.3,11.8-9.1c0.3-6.9-5.7-11.7-12.6-10.1
		c-0.8,0.2-1.9,1.3-2.5,0.1c-0.5-1-0.1-2.3,0.6-3.3c0.7-0.9,1.6-1.5,2.6-1.9C83.1,73.8,93.8,69,105,65c2-0.7,3.6-0.5,5.1,1
		c8.9,8.5,17.2,17.5,24.5,27.4c1.3,1.8,1.5,3.6,0.6,5.7c-4.5,10.2-9.1,20.3-14.4,30c-2.3,4.1-2.2,4.2-6.9,3.6
		c-12.9-1.5-25.5-4.2-37.8-8.2c-2.1-0.7-3.2-1.9-3.5-4.1C71.9,115.4,71,110.5,70.4,105.1"/>
	<path class="st0" d="M100.6,1C45.4,1,1.7,44.4,1.7,99.3c0,54.9,43.6,98.6,98.4,98.6c54.2,0,98.3-44,98.2-98
		C198.2,44.9,154.8,1,100.6,1 M70.6,64c2.1-13.8,5.8-27,12.1-39.6c1.5-3,3.5-4.5,6.8-4.9c5.8-0.6,11.7-0.9,17.5-0.4
		c1.8,0.2,2.6-0.4,2.6-2.2c0-0.7,0.3-1.4,0.3-2.1c0-4.2,1-3.9,4.5-3.2c23,4.1,41.8,15.2,56.2,33.6c0.4,0.4,0.7,0.9,1,1.4
		c0.1,0.1,0,0.3,0,0.6c-2.2-0.3-4.4-0.7-6.6-0.9C145,44,125.3,46,106,51.7c-11.7,3.4-22.9,8-33.7,13.5c-0.5,0.2-0.9,0.8-1.5,0.3
		C70.3,65.1,70.6,64.5,70.6,64 M58.1,167.9c-5.7-3-10.6-7-14.9-11.7c-11.8-13-20.3-27.7-22.6-45.4c-1.9-14.2-0.3-27.9,5.1-41.2
		c1.2-2.9,1.2-2.9-1.6-4.1c-0.3-0.1-0.7-0.3-1-0.4c-4.4-1.8-4.4-1.8-2.2-6c6-11.5,14-21.3,24.1-29.5c1.6-1.3,2.5-1.2,3.7,0.5
		c3.3,4.8,3.4,4.7,8.2,1.6c3.3-2.1,6.8-4,10.8-5.8c-1.8,4.9-3.5,9.3-4.8,13.8c-5.6,18.6-7,37.7-5.8,57c0.4,6.1,1,12.2,1.9,18.3
		c0.1,0.6,0.5,1.4-0.1,1.8c-0.6,0.4-1.2-0.2-1.8-0.5c-7.3-3.5-14.3-7.5-20.7-12.5c-2.2-1.7-2.3-1.7-3.9,0.5c-1.5,1.9-3,3.9-4.6,5.8
		c-1.9,2.3-1.8,2.6,0.6,4.4c10,7.1,20.7,13.1,32.2,17.7c15.1,6.1,30.9,9.9,47,12.4c0.8,0.1,1.5,0.3,2.8,0.6
		c-7.5,9.9-15.2,18.9-26.5,23.9C75,173.1,66.5,172.3,58.1,167.9 M157.8,167.6c-11.8,10-25.3,16.6-40.5,19.6
		c-13.5,2.7-27,2.2-40.3-1.4c-0.5-0.1-1-0.3-1.4-0.4c-0.1,0-0.2-0.2-0.7-0.6c5.9-0.6,11.3-2.1,16.4-4.6
		c10.7-5.3,18.8-13.5,26.1-22.7c10.4-13.1,18.1-28,25.1-43.1c0.5-1,0.9-2,1.4-2.9c0.2-0.5,0.3-1.3,1-1.2c0.6,0,0.7,0.6,1,1.1
		c6.6,13.6,12,27.5,13.7,42.6c0.3,2.9,0.6,5.9,0.9,8.8C160.6,164.9,159.3,166.3,157.8,167.6 M173.6,149.8c-0.3,0.5-0.7,1-1,1.4
		c-0.1,0.1-0.2,0.1-0.7,0.3c-4.7-36.6-24-65.3-49.1-91.1c4.2-1.4,8.2-1.7,12.1-2.4c14.4-2.7,28.4-0.5,42.5,2.6
		c2.5,0.5,3.9,2.3,4.8,4.5c5,12.2,7.5,24.8,6.9,38C188.4,120.2,183.1,135.7,173.6,149.8"/>
	<path class="st0" d="M85.6,94.1c0,5.6-4.6,10.2-10.2,10.2c-5.6,0-10.2-4.6-10.2-10.2c0-5.6,4.6-10.2,10.2-10.2
		C81,83.9,85.6,88.4,85.6,94.1"/>
	<path class="st1" d="M70.4,105.1c-0.7-2.1,0.8-1.7,2.3-1.5c6.3,0.8,11.5-3.3,11.8-9.1c0.3-6.9-5.7-11.7-12.6-10.1
		c-0.8,0.2-1.9,1.3-2.5,0.1c-0.5-1-0.1-2.3,0.6-3.3c0.7-0.9,1.6-1.5,2.6-1.9C83.1,73.8,93.8,69,105,65c2-0.7,3.6-0.5,5.1,1
		c8.9,8.5,17.2,17.5,24.5,27.4c1.3,1.8,1.5,3.6,0.6,5.7c-4.5,10.2-9.1,20.3-14.4,30c-2.3,4.1-2.2,4.2-6.9,3.6
		c-12.9-1.5-25.5-4.2-37.8-8.2c-2.1-0.7-3.2-1.9-3.5-4.1C71.9,115.4,71,110.5,70.4,105.1"/>
</g>
</svg>
